<?xml version="1.0" encoding="UTF-8"?>
<!-- Created with Inkscape (http://www.inkscape.org/) -->
<svg width="128" height="128" version="1.1" viewBox="0 0 33.867 33.867" xmlns="http://www.w3.org/2000/svg" xmlns:cc="http://creativecommons.org/ns#" xmlns:dc="http://purl.org/dc/elements/1.1/" xmlns:rdf="http://www.w3.org/1999/02/22-rdf-syntax-ns#" xmlns:xlink="http://www.w3.org/1999/xlink">
 <defs>
  <radialGradient id="radialGradient4574" cx="1.9747" cy="265.21" r="14.909" gradientTransform="matrix(1.9544 2.0291 -1.1951 1.1511 315.07 -44.332)" gradientUnits="userSpaceOnUse">
   <stop stop-color="#fff" offset="0"/>
   <stop stop-color="#f5af0c" offset="1"/>
  </radialGradient>
  <filter id="filter5410" color-interpolation-filters="sRGB">
   <feFlood flood-color="rgb(0,0,0)" flood-opacity=".7" result="flood"/>
   <feComposite in="flood" in2="SourceGraphic" operator="in" result="composite1"/>
   <feGaussianBlur in="composite1" result="blur" stdDeviation="0.3"/>
   <feOffset dx="0.3" dy="0.3" result="offset"/>
   <feComposite in="SourceGraphic" in2="offset" result="composite2"/>
  </filter>
 </defs>
 <metadata>
  <rdf:RDF>
   <cc:Work rdf:about="">
    <dc:format>image/svg+xml</dc:format>
    <dc:type rdf:resource="http://purl.org/dc/dcmitype/StillImage"/>
    <dc:title/>
   </cc:Work>
  </rdf:RDF>
 </metadata>
 <g transform="translate(0 -263.13)">
  <g filter="url(#filter5410)" aria-label="S">
   <path d="m17.177 288.55 2.2696-0.19844q0.16123 1.3643 0.74414 2.2448 0.59531 0.86816 1.8355 1.4139 1.2402 0.5333 2.7905 0.5333 1.3767 0 2.4309-0.40927 1.0542-0.40928 1.5627-1.1162 0.5209-0.71934 0.5209-1.5627 0-0.85576-0.49609-1.4883-0.49609-0.64492-1.6371-1.079-0.73174-0.28526-3.237-0.88057-2.5053-0.60772-3.5099-1.141-1.3022-0.68212-1.9472-1.6867-0.63252-1.017-0.63252-2.2696 0-1.3767 0.78135-2.5673 0.78135-1.203 2.282-1.8231 1.5007-0.62012 3.3362-0.62012 2.0216 0 3.5595 0.65732 1.5503 0.64493 2.3812 1.91 0.83096 1.265 0.89297 2.865l-2.3068 0.17363q-0.18604-1.7239-1.265-2.6045-1.0666-0.88057-3.1626-0.88057-2.1828 0-3.1874 0.80615-0.99219 0.79375-0.99219 1.9224 0 0.97978 0.70693 1.6123 0.69453 0.63252 3.6215 1.3022 2.9394 0.65732 4.0308 1.1534 1.5875 0.73174 2.344 1.8604 0.75654 1.1162 0.75654 2.5797 0 1.4511-0.83096 2.7409-0.83096 1.2774-2.3937 1.9968-1.5503 0.70693-3.4975 0.70693-2.4681 0-4.1424-0.71933-1.6619-0.71934-2.6169-2.158-0.94258-1.4511-0.99219-3.2742zm-1.6778-0.5333 2.4061 0.60771q-0.75654 2.9642-2.7285 4.5269-1.9596 1.5503-4.7997 1.5503-2.9394 0-4.7873-1.1906-1.8355-1.203-2.8029-3.4727-0.95498-2.2696-0.95498-4.8741 0-2.8401 1.079-4.9485 1.0914-2.1208 3.0882-3.2122 2.0092-1.1038 4.4152-1.1038 2.7285 0 4.5889 1.3891 1.8604 1.3891 2.5921 3.9067l-2.3688 0.55811q-0.63252-1.9844-1.8355-2.8898t-3.0262-0.90537q-2.096 0-3.5099 1.0046-1.4015 1.0046-1.972 2.7037-0.57051 1.6867-0.57051 3.4851 0 2.3192 0.66973 4.0556 0.68213 1.7239 2.1084 2.5797t3.0882 0.85576q2.0216 0 3.423-1.1658 1.4015-1.1658 1.8976-3.4602zm-12.746 7.1989 11.638-30.303h4.3202l12.402 30.303h-4.5682l-3.5347-9.1777h-12.671l-3.328 9.1777zm8.7437-12.444h10.273l-3.1626-8.3923q-1.4469-3.824-2.1497-6.2838-0.57878 2.9146-1.633 5.7878z" fill="url(#radialGradient4574)" stroke-width=".26458"/>
  </g>
 </g>
</svg>
